<?xml version="1.0" encoding="UTF-8"?>
<svg version="1.1" xmlns="http://www.w3.org/2000/svg" width="500" height="500">
<path d="M0 0 C165 0 330 0 500 0 C500 165 500 330 500 500 C335 500 170 500 0 500 C0 335 0 170 0 0 Z " fill="#FEFEFE" transform="translate(0,0)"/>
<path d="M0 0 C3.08397277 1.54849266 4.93579181 3.24681943 6.9140625 6.0546875 C8.23793949 10.1041936 8.26434922 13.0598334 7.9765625 17.3046875 C6.9765625 18.3046875 6.9765625 18.3046875 4.93530273 18.41821289 C4.06075439 18.41297607 3.18620605 18.40773926 2.28515625 18.40234375 C1.34091797 18.39912109 0.39667969 18.39589844 -0.57617188 18.39257812 C-1.56939453 18.38419922 -2.56261719 18.37582031 -3.5859375 18.3671875 C-4.58302734 18.36267578 -5.58011719 18.35816406 -6.60742188 18.35351562 C-9.07948599 18.34168757 -11.55143268 18.32520599 -14.0234375 18.3046875 C-12.33535842 22.53553653 -12.33535842 22.53553653 -9.0234375 25.3046875 C-4.36588132 25.70969239 -2.6433827 25.07997882 0.9765625 22.3046875 C3.32847248 22.58138279 4.86343324 23.24812287 6.9765625 24.3046875 C6.66034421 27.25605822 5.99669416 28.28455584 3.86328125 30.41796875 C0.30501008 32.74360471 -1.80479967 32.81037669 -6.0234375 32.7421875 C-7.2196875 32.74089844 -8.4159375 32.73960937 -9.6484375 32.73828125 C-14.75769555 32.08188351 -17.18181178 30.37377963 -20.3359375 26.3671875 C-23.21792837 20.8267071 -23.14424683 14.01861189 -21.36328125 8.1171875 C-19.45167594 4.27742618 -16.78203634 1.82981883 -13.01171875 -0.03515625 C-8.60759211 -1.49743012 -4.39167893 -1.50910975 0 0 Z " fill="#0D53B1" transform="translate(202.0234375,231.6953125)"/>
<path d="M0 0 C1.32 0 2.64 0 4 0 C4.33 1.32 4.66 2.64 5 4 C5.804375 4.144375 6.60875 4.28875 7.4375 4.4375 C10 5 10 5 11 6 C11.07205511 7.68608966 11.08386068 9.37500659 11.0625 11.0625 C11.05347656 11.98160156 11.04445312 12.90070313 11.03515625 13.84765625 C11.02355469 14.55792969 11.01195312 15.26820313 11 16 C10.01 16 9.02 16 8 16 C8 13.03 8 10.06 8 7 C6.68 7 5.36 7 4 7 C4 9.97 4 12.94 4 16 C3.21625 15.814375 2.4325 15.62875 1.625 15.4375 C-0.97089775 14.74037734 -0.97089775 14.74037734 -3 16 C-6.07155269 16.26140874 -8.199384 16.43904748 -10.9375 14.9375 C-12.66665678 11.78433176 -11.8590699 9.37491745 -11 6 C-8 4 -8 4 -4.875 4.3125 C-2 5 -2 5 -1 6 C-0.67 4.02 -0.34 2.04 0 0 Z " fill="#EAEAEA" transform="translate(240,242)"/>
<path d="M0 0 C1.8125 1.0625 1.8125 1.0625 3 3 C3.3125 6.5625 3.3125 6.5625 3 10 C1 12 1 12 -1.9375 12.3125 C-5 12 -5 12 -6.875 10.875 C-8.52854531 8.11909116 -8.39365568 6.14924548 -8 3 C-5.90534242 -0.30735407 -3.75951639 -0.56392746 0 0 Z " fill="#7D7D7D" transform="translate(275,246)"/>
<path d="M0 0 C2.15502531 3.23253796 2.46856135 4.25150923 2 8 C0.875 9.8125 0.875 9.8125 -1 11 C-4.0625 11.3125 -4.0625 11.3125 -7 11 C-9 9 -9 9 -9.3125 5.5625 C-9 2 -9 2 -7.875 0 C-4.98192987 -1.54297074 -3.06359725 -0.91256088 0 0 Z " fill="#7F7F7F" transform="translate(263,247)"/>
<path d="M0 0 C2.01822917 0.06510417 4.03645833 0.13020833 6.0546875 0.1953125 C6.0546875 1.1853125 6.0546875 2.1753125 6.0546875 3.1953125 C4.0746875 3.1953125 2.0946875 3.1953125 0.0546875 3.1953125 C-0.2753125 3.8553125 -0.6053125 4.5153125 -0.9453125 5.1953125 C0.0034375 5.3190625 0.9521875 5.4428125 1.9296875 5.5703125 C5.0546875 6.1953125 5.0546875 6.1953125 7.0546875 8.1953125 C7.3046875 10.6953125 7.3046875 10.6953125 7.0546875 13.1953125 C5.0546875 15.1953125 5.0546875 15.1953125 1.5546875 15.5078125 C-0.1778125 15.353125 -0.1778125 15.353125 -1.9453125 15.1953125 C-2.6053125 14.2053125 -3.2653125 13.2153125 -3.9453125 12.1953125 C-0.65554442 11.09872314 0.76772517 11.39578112 4.0546875 12.1953125 C4.0546875 11.2053125 4.0546875 10.2153125 4.0546875 9.1953125 C1.7446875 8.5353125 -0.5653125 7.8753125 -2.9453125 7.1953125 C-3.5703125 4.8203125 -3.5703125 4.8203125 -3.9453125 2.1953125 C-1.9453125 0.1953125 -1.9453125 0.1953125 0 0 Z " fill="#818181" transform="translate(218.9453125,242.8046875)"/>
<path d="M0 0 C0.99 0 1.98 0 3 0 C3.33 1.32 3.66 2.64 4 4 C4.804375 4.144375 5.60875 4.28875 6.4375 4.4375 C9 5 9 5 10 6 C10.07205511 7.68608966 10.08386068 9.37500659 10.0625 11.0625 C10.05347656 11.98160156 10.04445312 12.90070313 10.03515625 13.84765625 C10.02355469 14.55792969 10.01195312 15.26820313 10 16 C9.01 16 8.02 16 7 16 C7 13.03 7 10.06 7 7 C5.68 7 4.36 7 3 7 C3 9.97 3 12.94 3 16 C2.01 16 1.02 16 0 16 C0 10.72 0 5.44 0 0 Z " fill="#8E8E8E" transform="translate(241,242)"/>
<path d="M0 0 C1.9375 1.3125 1.9375 1.3125 3 3 C3 3.99 3 4.98 3 6 C-1.29 6 -5.58 6 -10 6 C-9.67 4.35 -9.34 2.7 -9 1 C-5.95016004 -0.52491998 -3.3576631 -0.23562548 0 0 Z " fill="#F7F9FC" transform="translate(199,238)"/>
<path d="M0 0 C0.928125 0.20625 1.85625 0.4125 2.8125 0.625 C2.8125 1.615 2.8125 2.605 2.8125 3.625 C0.8325 3.625 -1.1475 3.625 -3.1875 3.625 C-2.8575 5.275 -2.5275 6.925 -2.1875 8.625 C-0.5375 8.295 1.1125 7.965 2.8125 7.625 C2.4825 8.945 2.1525 10.265 1.8125 11.625 C-3.53715035 11.98164336 -3.53715035 11.98164336 -6.125 10.5625 C-7.85415678 7.40933176 -7.0465699 4.99991745 -6.1875 1.625 C-3.1875 -0.375 -3.1875 -0.375 0 0 Z " fill="#838383" transform="translate(235.1875,246.375)"/>
<path d="M0 0 C0.99 0 1.98 0 3 0 C3.33 5.28 3.66 10.56 4 16 C2.68 15.67 1.36 15.34 0 15 C0 10.05 0 5.1 0 0 Z " fill="#7D7D7D" transform="translate(281,242)"/>
<path d="M0 0 C0.66 0 1.32 0 2 0 C2 1.98 2 3.96 2 6 C2.66 6.33 3.32 6.66 4 7 C3.67 9.97 3.34 12.94 3 16 C2.01 16 1.02 16 0 16 C0 10.72 0 5.44 0 0 Z " fill="#7D7D7D" transform="translate(241,242)"/>
<path d="M0 0 C2.475 0.495 2.475 0.495 5 1 C4.67 2.98 4.34 4.96 4 7 C2.68 6.67 1.36 6.34 0 6 C0 4.02 0 2.04 0 0 Z " fill="#F1F1F1" transform="translate(257,249)"/>
<path d="M0 0 C2.0625 0.4375 2.0625 0.4375 4 1 C4 2.65 4 4.3 4 6 C2.68 6.33 1.36 6.66 0 7 C-0.38133299 5.0085944 -0.71325582 3.00720923 -1 1 C-0.67 0.67 -0.34 0.34 0 0 Z " fill="#F5F5F5" transform="translate(271,249)"/>
<path d="M0 0 C2.70313576 -0.21917317 4.43958382 -0.32851983 6.8125 1.0625 C8.60842137 3.99268751 8.18977574 6.6472953 8 10 C7.01 9.67 6.02 9.34 5 9 C4.67 6.36 4.34 3.72 4 1 C2.68 0.67 1.36 0.34 0 0 Z " fill="#888888" transform="translate(270,246)"/>
<path d="M0 0 C0 2.64 0 5.28 0 8 C-0.99 8 -1.98 8 -3 8 C-3 5.69 -3 3.38 -3 1 C-1 0 -1 0 0 0 Z " fill="#787878" transform="translate(251,250)"/>
<path d="M0 0 C1.98 0 3.96 0 6 0 C6 0.99 6 1.98 6 3 C3.69 3 1.38 3 -1 3 C-0.67 2.01 -0.34 1.02 0 0 Z " fill="#7A7A7A" transform="translate(219,243)"/>
</svg>
